<?xml version="1.0" standalone="no"?>
<!DOCTYPE svg PUBLIC "-//W3C//DTD SVG 20010904//EN"
 "http://www.w3.org/TR/2001/REC-SVG-20010904/DTD/svg10.dtd">
<svg version="1.0" xmlns="http://www.w3.org/2000/svg"
 width="116.000000pt" height="142.000000pt" viewBox="0 0 116.000000 142.000000"
 preserveAspectRatio="xMidYMid meet">

<g transform="translate(0.000000,142.000000) scale(0.100000,-0.100000)"
fill="#000000" stroke="none">
<path d="M339 953 l-104 -128 3 -182 3 -183 144 -105 c80 -58 151 -105 159
-105 8 0 109 23 225 51 l211 51 1 66 c1 37 4 125 7 195 l7 128 -107 118 -106
118 -144 46 c-79 25 -154 49 -169 52 -23 6 -35 -6 -130 -122z m540 -148 l83
-90 -6 -89 c-3 -49 -6 -124 -6 -166 l0 -76 -66 -16 -66 -16 4 102 3 102 -52
-10 -53 -9 0 -103 0 -104 -27 -6 c-16 -3 -44 -10 -63 -15 -19 -5 -38 -9 -42
-9 -5 0 -8 78 -8 174 l0 174 98 126 c53 69 102 124 108 123 5 -1 47 -42 93
-92z"/>
</g>
</svg>
